<svg xmlns="http://www.w3.org/2000/svg" viewBox="0 0 100 100">
  <defs>
    <linearGradient id="toothGrad" x1="0%" y1="0%" x2="100%" y2="100%">
      <stop offset="0%" style="stop-color:#2563eb;stop-opacity:1" />
      <stop offset="100%" style="stop-color:#1e40af;stop-opacity:1" />
    </linearGradient>
  </defs>
  
  <!-- Tooth shape -->
  <path d="M50 20 C35 20, 25 25, 25 35 C25 40, 25 50, 27 60 C28 65, 30 70, 35 75 C38 78, 42 80, 45 80 L55 80 C58 80, 62 78, 65 75 C70 70, 72 65, 73 60 C75 50, 75 40, 75 35 C75 25, 65 20, 50 20 Z" 
        fill="url(#toothGrad)" 
        stroke="#ffffff" 
        stroke-width="2"/>
  
  <!-- Sparkle effects -->
  <circle cx="35" cy="35" r="2" fill="#ffffff" opacity="0.9"/>
  <circle cx="40" cy="30" r="1.5" fill="#ffffff" opacity="0.7"/>
  <circle cx="65" cy="40" r="2" fill="#ffffff" opacity="0.8"/>
</svg>
